<svg width="44" height="27" viewBox="0 0 44 27" fill="none" xmlns="http://www.w3.org/2000/svg">
<path d="M12.6977 10.907C12.3163 10.907 12 10.5907 12 10.2093V7.88372C12 5.18605 14.1953 3 16.8837 3H19.2093C19.5907 3 19.907 3.31628 19.907 3.69767C19.907 4.07907 19.5907 4.39535 19.2093 4.39535H16.8837C14.9581 4.39535 13.3953 5.95814 13.3953 7.88372V10.2093C13.3953 10.5907 13.0791 10.907 12.6977 10.907Z" fill="#706F6F"/>
<path d="M31.3031 10.907C30.9217 10.907 30.6054 10.5907 30.6054 10.2093V7.88372C30.6054 5.95814 29.0426 4.39535 27.117 4.39535H24.7914C24.41 4.39535 24.0938 4.07907 24.0938 3.69767C24.0938 3.31628 24.41 3 24.7914 3H27.117C29.8054 3 32.0007 5.18605 32.0007 7.88372V10.2093C32.0007 10.5907 31.6844 10.907 31.3031 10.907Z" fill="#706F6F"/>
<path d="M27.1165 22.9999H25.7211C25.3397 22.9999 25.0234 22.6837 25.0234 22.3023C25.0234 21.9209 25.3397 21.6046 25.7211 21.6046H27.1165C29.042 21.6046 30.6048 20.0418 30.6048 18.1162V16.7209C30.6048 16.3395 30.9211 16.0232 31.3025 16.0232C31.6839 16.0232 32.0002 16.3395 32.0002 16.7209V18.1162C32.0002 20.8139 29.8048 22.9999 27.1165 22.9999Z" fill="#706F6F"/>
<path d="M19.2093 23.0002H16.8837C14.1953 23.0002 12 20.8142 12 18.1165V15.7909C12 15.4095 12.3163 15.0933 12.6977 15.0933C13.0791 15.0933 13.3953 15.4095 13.3953 15.7909V18.1165C13.3953 20.0421 14.9581 21.6049 16.8837 21.6049H19.2093C19.5907 21.6049 19.907 21.9212 19.907 22.3026C19.907 22.684 19.5907 23.0002 19.2093 23.0002Z" fill="#706F6F"/>
<path d="M19.2093 12.3023H17.3489C16.0373 12.3023 15.2559 11.5209 15.2559 10.2093V8.34882C15.2559 7.03719 16.0373 6.2558 17.3489 6.2558H19.2093C20.521 6.2558 21.3024 7.03719 21.3024 8.34882V10.2093C21.3024 11.5209 20.521 12.3023 19.2093 12.3023ZM17.3489 7.65115C16.8 7.65115 16.6512 7.79998 16.6512 8.34882V10.2093C16.6512 10.7581 16.8 10.907 17.3489 10.907H19.2093C19.7582 10.907 19.907 10.7581 19.907 10.2093V8.34882C19.907 7.79998 19.7582 7.65115 19.2093 7.65115H17.3489Z" fill="#706F6F"/>
<path d="M26.6517 12.3023H24.7913C23.4796 12.3023 22.6982 11.5209 22.6982 10.2093V8.34882C22.6982 7.03719 23.4796 6.2558 24.7913 6.2558H26.6517C27.9634 6.2558 28.7448 7.03719 28.7448 8.34882V10.2093C28.7448 11.5209 27.9634 12.3023 26.6517 12.3023ZM24.7913 7.65115C24.2424 7.65115 24.0936 7.79998 24.0936 8.34882V10.2093C24.0936 10.7581 24.2424 10.907 24.7913 10.907H26.6517C27.2006 10.907 27.3494 10.7581 27.3494 10.2093V8.34882C27.3494 7.79998 27.2006 7.65115 26.6517 7.65115H24.7913Z" fill="#706F6F"/>
<path d="M19.2093 19.7443H17.3489C16.0373 19.7443 15.2559 18.9629 15.2559 17.6513V15.7908C15.2559 14.4792 16.0373 13.6978 17.3489 13.6978H19.2093C20.521 13.6978 21.3024 14.4792 21.3024 15.7908V17.6513C21.3024 18.9629 20.521 19.7443 19.2093 19.7443ZM17.3489 15.0932C16.8 15.0932 16.6512 15.242 16.6512 15.7908V17.6513C16.6512 18.2001 16.8 18.349 17.3489 18.349H19.2093C19.7582 18.349 19.907 18.2001 19.907 17.6513V15.7908C19.907 15.242 19.7582 15.0932 19.2093 15.0932H17.3489Z" fill="#706F6F"/>
<path d="M26.6517 19.7443H24.7913C23.4796 19.7443 22.6982 18.9629 22.6982 17.6513V15.7908C22.6982 14.4792 23.4796 13.6978 24.7913 13.6978H26.6517C27.9634 13.6978 28.7448 14.4792 28.7448 15.7908V17.6513C28.7448 18.9629 27.9634 19.7443 26.6517 19.7443ZM24.7913 15.0932C24.2424 15.0932 24.0936 15.242 24.0936 15.7908V17.6513C24.0936 18.2001 24.2424 18.349 24.7913 18.349H26.6517C27.2006 18.349 27.3494 18.2001 27.3494 17.6513V15.7908C27.3494 15.242 27.2006 15.0932 26.6517 15.0932H24.7913Z" fill="#706F6F"/>
</svg>
