<svg width="44" height="27" viewBox="0 0 44 27" fill="none" xmlns="http://www.w3.org/2000/svg">
<path d="M22.9302 15.5581H22C21.6186 15.5581 21.3023 15.2419 21.3023 14.8605C21.3023 14.4791 21.6186 14.1628 22 14.1628H22.9302C23.572 14.1628 24.093 13.6419 24.093 13V4.39535H16.4185C15.3209 4.39535 14.3162 4.99068 13.7767 5.94882C13.5906 6.2837 13.1627 6.40467 12.8279 6.21862C12.493 6.03258 12.372 5.60465 12.558 5.26977C13.3394 3.87442 14.8185 3 16.4185 3H24.7907C25.172 3 25.4883 3.31628 25.4883 3.69767V13C25.4883 14.414 24.3441 15.5581 22.9302 15.5581Z" fill="#706F6F"/>
<path d="M28.5116 21.1396H27.5814C27.2 21.1396 26.8837 20.8233 26.8837 20.4419C26.8837 19.8001 26.3628 19.2791 25.7209 19.2791C25.0791 19.2791 24.5581 19.8001 24.5581 20.4419C24.5581 20.8233 24.2419 21.1396 23.8605 21.1396H20.1395C19.7581 21.1396 19.4419 20.8233 19.4419 20.4419C19.4419 19.8001 18.9209 19.2791 18.2791 19.2791C17.6372 19.2791 17.1163 19.8001 17.1163 20.4419C17.1163 20.8233 16.8 21.1396 16.4186 21.1396H15.4884C13.5628 21.1396 12 19.5768 12 17.6512C12 17.2698 12.3163 16.9536 12.6977 16.9536C13.0791 16.9536 13.3953 17.2698 13.3953 17.6512C13.3953 18.8047 14.3349 19.7443 15.4884 19.7443H15.8139C16.1209 18.6745 17.107 17.8838 18.2791 17.8838C19.4512 17.8838 20.4372 18.6745 20.7442 19.7443H23.2651C23.5721 18.6745 24.5581 17.8838 25.7302 17.8838C26.9023 17.8838 27.8884 18.6745 28.1953 19.7443H28.5116C29.6651 19.7443 30.6047 18.8047 30.6047 17.6512V15.5582H28.5116C27.6186 15.5582 26.8837 14.8233 26.8837 13.9303V11.1396C26.8837 10.2466 27.6093 9.5117 28.5116 9.5117L27.5163 7.77217C27.3116 7.40938 26.9209 7.18612 26.5023 7.18612H25.4884V13.0001C25.4884 14.414 24.3442 15.5582 22.9302 15.5582H22C21.6186 15.5582 21.3023 15.2419 21.3023 14.8605C21.3023 14.4791 21.6186 14.1629 22 14.1629H22.9302C23.5721 14.1629 24.093 13.6419 24.093 13.0001V6.48845C24.093 6.10705 24.4093 5.79077 24.7907 5.79077H26.5023C27.4233 5.79077 28.2698 6.2838 28.7256 7.0838L30.3163 9.86519C30.4372 10.0791 30.4372 10.3489 30.3163 10.5629C30.1954 10.7768 29.9628 10.9071 29.7116 10.9071H28.5116C28.3814 10.9071 28.2791 11.0094 28.2791 11.1396V13.9303C28.2791 14.0605 28.3814 14.1629 28.5116 14.1629H31.3023C31.6837 14.1629 32 14.4791 32 14.8605V17.6512C32 19.5768 30.4372 21.1396 28.5116 21.1396Z" fill="#706F6F"/>
<path d="M18.2788 23C16.8649 23 15.7207 21.8558 15.7207 20.4419C15.7207 19.0279 16.8649 17.8837 18.2788 17.8837C19.6928 17.8837 20.837 19.0279 20.837 20.4419C20.837 21.8558 19.6928 23 18.2788 23ZM18.2788 19.2791C17.637 19.2791 17.1161 19.8 17.1161 20.4419C17.1161 21.0837 17.637 21.6047 18.2788 21.6047C18.9207 21.6047 19.4416 21.0837 19.4416 20.4419C19.4416 19.8 18.9207 19.2791 18.2788 19.2791Z" fill="#706F6F"/>
<path d="M25.7212 23C24.3073 23 23.1631 21.8558 23.1631 20.4419C23.1631 19.0279 24.3073 17.8837 25.7212 17.8837C27.1352 17.8837 28.2794 19.0279 28.2794 20.4419C28.2794 21.8558 27.1352 23 25.7212 23ZM25.7212 19.2791C25.0794 19.2791 24.5584 19.8 24.5584 20.4419C24.5584 21.0837 25.0794 21.6047 25.7212 21.6047C26.3631 21.6047 26.884 21.0837 26.884 20.4419C26.884 19.8 26.3631 19.2791 25.7212 19.2791Z" fill="#706F6F"/>
<path d="M31.3024 15.5581H28.5117C27.6187 15.5581 26.8838 14.8232 26.8838 13.9302V11.1395C26.8838 10.2465 27.6187 9.5116 28.5117 9.5116H29.7117C29.9629 9.5116 30.1954 9.64183 30.3163 9.86509L31.907 12.6558C31.9629 12.7581 32.0001 12.879 32.0001 13V14.8604C32.0001 15.2418 31.6838 15.5581 31.3024 15.5581ZM28.5117 10.9069C28.3815 10.9069 28.2791 11.0093 28.2791 11.1395V13.9302C28.2791 14.0604 28.3815 14.1628 28.5117 14.1628H30.6047V13.186L29.3024 10.9069H28.5117Z" fill="#706F6F"/>
<path d="M18.2791 9.97671H12.6977C12.3163 9.97671 12 9.66043 12 9.27903C12 8.89764 12.3163 8.58136 12.6977 8.58136H18.2791C18.6605 8.58136 18.9767 8.89764 18.9767 9.27903C18.9767 9.66043 18.6605 9.97671 18.2791 9.97671Z" fill="#706F6F"/>
<path d="M16.4186 12.7675H12.6977C12.3163 12.7675 12 12.4512 12 12.0698C12 11.6884 12.3163 11.3721 12.6977 11.3721H16.4186C16.8 11.3721 17.1163 11.6884 17.1163 12.0698C17.1163 12.4512 16.8 12.7675 16.4186 12.7675Z" fill="#706F6F"/>
<path d="M14.5581 15.5581H12.6977C12.3163 15.5581 12 15.2418 12 14.8604C12 14.479 12.3163 14.1627 12.6977 14.1627H14.5581C14.9395 14.1627 15.2558 14.479 15.2558 14.8604C15.2558 15.2418 14.9395 15.5581 14.5581 15.5581Z" fill="#706F6F"/>
</svg>
