<svg width="44" height="27" viewBox="0 0 44 27" fill="none" xmlns="http://www.w3.org/2000/svg">
<path d="M28.1512 9.15938C28.0911 9.14938 28.021 9.14938 27.9609 9.15938C26.5785 9.10939 25.4766 7.97952 25.4766 6.57969C25.4766 5.14986 26.6286 4 28.0611 4C29.4936 4 30.6456 5.15986 30.6456 6.57969C30.6356 7.97952 29.5337 9.10939 28.1512 9.15938Z" stroke="#706F6F" stroke-width="1.37901" stroke-linecap="round" stroke-linejoin="round"/>
<path d="M27.1179 16.4383C28.4903 16.6683 30.003 16.4283 31.0648 15.7184C32.4773 14.7785 32.4773 13.2387 31.0648 12.2988C29.993 11.5889 28.4603 11.349 27.0879 11.5889" stroke="#706F6F" stroke-width="1.37901" stroke-linecap="round" stroke-linejoin="round"/>
<path d="M16.0979 9.15938C16.158 9.14938 16.2281 9.14938 16.2882 9.15938C17.6706 9.10939 18.7725 7.97952 18.7725 6.57969C18.7725 5.14986 17.6205 4 16.188 4C14.7555 4 13.6035 5.15986 13.6035 6.57969C13.6135 7.97952 14.7155 9.10939 16.0979 9.15938Z" stroke="#706F6F" stroke-width="1.37901" stroke-linecap="round" stroke-linejoin="round"/>
<path d="M17.1312 16.4383C15.7589 16.6683 14.2462 16.4283 13.1844 15.7184C11.7719 14.7785 11.7719 13.2387 13.1844 12.2988C14.2562 11.5889 15.7889 11.349 17.1613 11.5889" stroke="#706F6F" stroke-width="1.37901" stroke-linecap="round" stroke-linejoin="round"/>
<path d="M22.1405 16.6284C22.0804 16.6184 22.0103 16.6184 21.9502 16.6284C20.5678 16.5784 19.4658 15.4485 19.4658 14.0487C19.4658 12.6189 20.6179 11.469 22.0504 11.469C23.4829 11.469 24.6349 12.6289 24.6349 14.0487C24.6249 15.4485 23.5229 16.5884 22.1405 16.6284Z" stroke="#706F6F" stroke-width="1.37901" stroke-linecap="round" stroke-linejoin="round"/>
<path d="M25.0556 19.7778C23.4628 18.7179 20.8282 18.7179 19.2254 19.7778C17.8129 20.7177 17.8129 22.2575 19.2254 23.1974C20.8282 24.2673 23.4528 24.2673 25.0556 23.1974" stroke="#706F6F" stroke-width="1.37901" stroke-linecap="round" stroke-linejoin="round"/>
</svg>
